<svg id="Capa_1" enable-background="new 0 0 512 512" height="512" viewBox="0 0 512 512" width="512" xmlns="http://www.w3.org/2000/svg"><g><g><path d="m73.801 241.142h-54.07v-60.868c0-4.114 1.314-8.12 3.749-11.434l25.609-34.85c2.866-3.9 8.803-3.537 11.172.684l6.513 11.603c4.607 8.207 7.027 17.461 7.027 26.872z" fill="#dd636e"/></g><g><path d="m66.775 146.276-6.513-11.603c-2.369-4.22-8.306-4.584-11.172-.684l-5.678 7.727 2.559 4.559c4.607 8.207 7.027 17.461 7.027 26.872v67.994h20.805v-67.994c-.002-9.41-2.421-18.664-7.028-26.871z" fill="#da4a54"/></g><g><path d="m19.732 218.107h54.07v126.11h-54.07z" fill="#ffd064"/></g><g><path d="m52.997 218.107h20.805v126.11h-20.805z" fill="#ffc250"/></g><g><path d="m337.539 427.985h-117.964c-8.284 0-15-6.716-15-15v-46.52h147.963v46.52c.001 8.284-6.715 15-14.999 15z" fill="#ffd064"/></g><path d="m333.789 366.465v36.77c0 3.314-2.686 6-6 6h-123.214v3.75c0 8.284 6.716 15 15 15h117.963c8.284 0 15-6.716 15-15v-46.52z" fill="#ffc250"/><g><ellipse cx="428.625" cy="94.366" fill="#f9efda" rx="76.086" ry="57.441"/></g><g><path d="m469.443 45.901c2.033 5.18 3.141 10.66 3.141 16.339 0 31.724-34.065 57.441-76.086 57.441-15.025 0-29.021-3.302-40.819-8.977 9.325 23.762 38.445 41.103 72.945 41.103 42.021 0 76.086-25.717 76.086-57.441 0-20.38-14.071-38.268-35.267-48.465z" fill="#f4ddb1"/></g><g><path d="m79.244 427.985h-64.955c-3.866 0-7-3.134-7-7v-127.677c0-3.866 3.134-7 7-7h64.954c3.866 0 7 3.134 7 7v127.677c.001 3.866-3.133 7-6.999 7z" fill="#756e78"/></g><path d="m79.244 286.308h-12.875v114.802c0 3.866-3.134 7-7 7h-52.08v12.875c0 3.866 3.134 7 7 7h64.954c3.866 0 7-3.134 7-7v-127.677c.001-3.866-3.133-7-6.999-7z" fill="#665e66"/><g><path d="m267.389 40.882-35.273 25.627c-4.556 3.31-6.463 9.178-4.723 14.534l17.739 54.594h66.849l17.739-54.594c1.74-5.356-.166-11.224-4.723-14.534l-35.273-25.627c-6.658-4.838-15.676-4.838-22.335 0z" fill="#a298a5"/></g><g><path d="m325.057 66.552-35.419-25.733c-6.608-4.801-15.555-4.801-22.162 0l-8.88 6.451c.463.279.918.575 1.361.897l35.419 25.733c4.521 3.285 6.413 9.107 4.686 14.422l-15.374 47.315h27.293l17.761-54.664c1.728-5.314-.164-11.136-4.685-14.421z" fill="#8b818e"/></g><g><circle cx="278.557" cy="279.047" fill="#e4989d" r="122.759"/></g><g><path d="m336.94 171.035c9.405 17.363 14.747 37.249 14.747 58.384 0 67.798-54.961 122.759-122.759 122.759-21.134 0-41.02-5.342-58.384-14.747 20.767 38.338 61.348 64.375 108.011 64.375 67.798 0 122.759-54.961 122.759-122.759.002-46.664-26.036-87.245-64.374-108.012z" fill="#e28086"/></g><g><path d="m313.961 165.082h-70.808c-9.065 0-16.414-7.349-16.414-16.414 0-9.065 7.349-16.414 16.414-16.414h70.808c9.065 0 16.414 7.349 16.414 16.414 0 9.066-7.349 16.414-16.414 16.414z" fill="#ffd064"/></g><path d="m315.147 132.314c-1.255 7.819-8.013 13.799-16.186 13.799h-70.808c-.401 0-.793-.032-1.186-.06-.137.854-.228 1.723-.228 2.615 0 9.065 7.349 16.414 16.414 16.414h70.808c9.065 0 16.414-7.349 16.414-16.414 0-8.664-6.719-15.744-15.228-16.354z" fill="#ffc250"/><g><path d="m295.706 239.507c-7.85 0-14.861 3.574-19.506 9.181-.998 1.205-2.832 1.205-3.83 0-4.645-5.607-11.656-9.181-19.506-9.181-13.988 0-25.327 11.339-25.327 25.327 0 23.182 31.956 50.852 43.026 59.742 2.175 1.747 5.268 1.747 7.443 0 11.07-8.89 43.026-36.56 43.026-59.742.001-13.987-11.338-25.327-25.326-25.327z" fill="#f9efda"/></g><g><path d="m204.342 450.513h-125.04c-20.039 0-36.284-16.245-36.284-36.284v-59.59c0-20.039 16.245-36.284 36.284-36.284h125.04c20.039 0 36.284 16.245 36.284 36.284v59.59c0 20.039-16.245 36.284-36.284 36.284z" fill="#ddeafb"/></g><path d="m204.342 318.354h-3.841v76.942c0 8.284-6.716 15-15 15h-142.483v3.932c0 20.039 16.245 36.284 36.284 36.284h125.04c20.039 0 36.284-16.245 36.284-36.284v-59.59c0-20.039-16.245-36.284-36.284-36.284z" fill="#cbe2ff"/><g><path d="m224.225 475.075h-164.806c-9.058 0-16.401-7.343-16.401-16.401 0-9.058 7.343-16.401 16.401-16.401h164.806c9.058 0 16.401 7.343 16.401 16.401 0 9.058-7.343 16.401-16.401 16.401z" fill="#756e78"/></g><path d="m224.225 442.273h-2.475c-.966 8.137-7.878 14.451-16.275 14.451h-162.331c-.076.641-.126 1.289-.126 1.95 0 9.058 7.343 16.401 16.401 16.401h164.806c9.058 0 16.401-7.343 16.401-16.401s-7.343-16.401-16.401-16.401z" fill="#665e66"/><g><path d="m428.625 29.635c-42.798 0-78.151 25.169-82.833 57.441h-10.367l1.31-4.032c2.677-8.235-.233-17.188-7.238-22.277l-35.8-26.011c-9.056-6.579-21.223-6.579-30.278 0l-35.8 26.011c-7.006 5.089-9.914 14.041-7.239 22.277l14.12 43.456c-8.789 3.36-15.049 11.877-15.049 21.832-.118 4.749 1.199 9.338 3.595 13.103-9.603 4.539-18.629 10.224-26.891 16.998-3.113 2.553-3.567 7.146-1.015 10.259 2.564 3.126 7.165 3.556 10.259 1.015 8.874-7.276 20.121-13.923 30.762-18.307 2.111.629 4.345.972 6.658.972h71.48c2.235 0 4.395-.322 6.443-.911 44.011 17.704 73.286 60.065 73.286 107.585 0 63.67-51.799 115.469-115.469 115.469-10.417 0-20.703-1.382-30.641-4.109v-36.788c0-23.465-19.09-42.555-42.555-42.555h-37.769c-2.984-10.362-4.504-21.107-4.504-32.018 0-23.905 7.239-46.839 20.933-66.321 2.315-3.294 1.522-7.84-1.772-10.155-3.293-2.314-7.84-1.522-10.155 1.772-15.429 21.951-23.585 47.783-23.585 74.705 0 10.871 1.343 21.599 3.982 32.018h-58.96v-17.953c0-7.211-5.448-13.167-12.442-13.988v-105.975c0-10.639-2.753-21.165-7.96-30.44l-6.513-11.602c-4.55-8.719-17.821-9.526-23.403-1.432l-25.608 34.849c-3.379 4.598-5.165 10.045-5.165 15.751v98.85c-6.994.821-12.442 6.776-12.442 13.988v128.07c0 7.771 6.322 14.093 14.093 14.093h26.634c.991 1.856 2.13 3.634 3.392 5.332-5.128 4.349-8.391 10.833-8.391 18.068 0 13.063 10.628 23.69 23.691 23.69h164.806c13.063 0 23.691-10.628 23.691-23.691 0-7.235-3.263-13.718-8.391-18.067 1.262-1.698 2.402-3.476 3.392-5.332h95.043c12.059 0 21.868-9.81 21.868-21.868v-32.914c29.716-23.854 48.777-60.463 48.777-101.446 0-26.675-8.019-52.313-23.191-74.14-13.12-18.877-30.751-33.771-51.338-43.484 2.391-3.762 3.706-8.347 3.587-13.09 0-9.955-6.261-18.472-15.049-21.832l8.073-24.845h15.104c4.682 32.272 40.035 57.441 82.833 57.441 14.936 0 29.582-3.083 42.353-8.916 3.662-1.673 5.275-5.997 3.603-9.659-1.673-3.663-5.998-5.273-9.659-3.603-10.884 4.971-23.436 7.599-36.297 7.599-37.935 0-68.797-22.498-68.797-50.152s30.862-50.152 68.797-50.152c37.934 0 68.796 22.498 68.796 50.152 0 8.659-3.119 17.211-9.022 24.733-2.485 3.167-1.932 7.749 1.235 10.235 3.167 2.484 7.749 1.932 10.235-1.235 7.937-10.114 12.132-21.778 12.132-33.733 0-35.693-37.402-64.731-83.375-64.731zm-401.604 195.761h39.491v53.622h-39.491zm2.334-52.24 25.029-34.061 6.034 10.75c3.986 7.101 6.094 15.159 6.094 23.304v37.669h-39.491v-30.543c0-2.579.807-5.041 2.334-7.119zm-14.776 247.539v-127.097h64.375v17.467h-.671c-23.465 0-42.555 19.09-42.555 42.555v61.627c0 1.836.131 3.653.362 5.449h-21.511zm209.646 14.288h-114.175c-4.026 0-7.289 3.264-7.289 7.289s3.264 7.289 7.289 7.289h114.175c5.024 0 9.112 4.088 9.112 9.112s-4.088 9.111-9.112 9.111h-164.806c-5.024 0-9.112-4.088-9.112-9.112s4.088-9.112 9.112-9.112h15.903c4.026 0 7.289-3.264 7.289-7.289s-3.264-7.289-7.289-7.289h-15.903c-.311 0-.619.012-.927.024-5.224-5.23-8.185-12.299-8.185-19.76v-61.627c0-15.426 12.55-27.976 27.976-27.976h127.077c15.426 0 27.976 12.55 27.976 27.976v61.627c0 7.46-2.961 14.529-8.185 19.76-.307-.011-.615-.023-.926-.023zm121.024-21.577c0 4.02-3.27 7.289-7.289 7.289h-90.405c.231-1.796.362-3.613.362-5.449v-9.801c9.99 2.413 20.258 3.649 30.641 3.649 24.363 0 47.179-6.74 66.692-18.445v22.757zm-109.063-340.844 35.801-26.011c3.929-2.855 9.209-2.855 13.14 0l35.801 26.011c1.879 1.365 2.66 3.767 1.941 5.976l-15.085 46.426h-58.456l-15.085-46.426c-.716-2.209.064-4.61 1.943-5.976zm86.899 76.442c0 4.846-3.943 8.789-8.789 8.789h-71.48c-4.846 0-8.789-3.943-8.789-8.789v-.672c0-4.846 3.943-8.789 8.789-8.789h71.48c5.114-.02 9.12 4.391 8.789 9.461z"/><circle cx="263.96" cy="94.366" r="10.325"/><circle cx="428.09" cy="94.366" r="10.325"/><circle cx="457.624" cy="113.436" r="10.325"/><circle cx="457.624" cy="75.296" r="10.325"/><path d="m266 330.26c4.879 3.917 11.693 3.917 16.571 0 13.756-11.047 45.751-39.535 45.751-65.425 0-17.985-14.632-32.617-32.617-32.617-7.957 0-15.524 2.875-21.42 8.023-5.896-5.148-13.463-8.023-21.42-8.023-17.985 0-32.617 14.632-32.617 32.617 0 25.889 31.995 54.378 45.752 65.425zm-13.135-83.463c5.385 0 10.448 2.384 13.892 6.542 3.685 4.681 11.373 4.68 15.057 0 3.444-4.157 8.507-6.542 13.892-6.542 9.946 0 18.038 8.092 18.038 18.038 0 15.765-20.223 37.768-39.458 53.378-19.236-15.61-39.459-37.613-39.459-53.378 0-9.947 8.092-18.038 18.038-18.038z"/></g></g></svg>